PathFileType	4	(X/Y/Z)	Patient4_TMGait_0pt7_02_left_17.trc.trc
DataRate	CameraRate	NumFrames	NumMarkers	Units	OrigDataRate	OrigDataStartFrame	OrigNumFrames
86.419753086420	86.419753086420	4	33	mm	86.419753086420	71	       141
Frame#	Time	Sacral			L.Shoulder			Chest			R.Shoulder			Neck			R.ASIS			L.ASIS			R.Thigh.Superior			R.Thigh.Lateral			R.Thigh.Inferior			R.Patella			L.Thigh.Superior			L.Thigh.Lateral			L.Thigh.Inferior			L.Patella			L.Shank.Superior			L.Shank.Lateral			L.Shank.Inferior			R.Shank.Superior			R.Shank.Lateral			R.Shank.Inferior			R.Heel			R.Midfoot.Superior			R.Midfoot.Lateral			R.Toe			L.Heel			L.Midfoot.Lateral			L.Midfoot.Superior			L.Toe			L.Elbow			L.Wrist			R.Elbow			R.Wrist			
		X1	Y1	Z1	X2	Y2	Z2	X3	Y3	Z3	X4	Y4	Z4	X5	Y5	Z5	X6	Y6	Z6	X7	Y7	Z7	X8	Y8	Z8	X9	Y9	Z9	X10	Y10	Z10	X11	Y11	Z11	X12	Y12	Z12	X13	Y13	Z13	X14	Y14	Z14	X15	Y15	Z15	X16	Y16	Z16	X17	Y17	Z17	X18	Y18	Z18	X19	Y19	Z19	X20	Y20	Z20	X21	Y21	Z21	X22	Y22	Z22	X23	Y23	Z23	X24	Y24	Z24	X25	Y25	Z25	X26	Y26	Z26	X27	Y27	Z27	X28	Y28	Z28	X29	Y29	Z29	X30	Y30	Z30	X31	Y31	Z31	X32	Y32	Z32	X33	Y33	Z33	

71	20.000000000000	817.804390125855	1005.906996761453	452.703674321744	1021.347632263044	1425.297749290364	267.243130374750	1124.000082593257	1343.880236551722	423.596579572207	1053.458846810555	1425.663674840335	599.181910809719	1031.894520546273	1482.743662509660	419.260114925794	1045.323389489888	931.856001205936	565.233197534682	1022.872976259221	955.816633329001	289.826436198522	1120.499566430388	770.569165828443	538.394596118330	1084.557934772857	648.700497214119	617.940746902248	1174.095689074649	614.959464962352	537.040665053735	1211.756822781621	529.832963791010	557.121723508896	1028.859883474577	727.999779312996	315.280497459647	910.219496506139	635.830364251917	254.137388811841	971.942916655005	540.352012992559	313.832455069032	956.603136282527	474.246617470241	322.993321550553	923.570485745138	407.613090632935	313.669024619184	818.907667854343	305.778174671157	265.581674111064	858.602109370269	188.100616238876	332.359512332527	1191.191933245417	439.414236348848	569.461505376632	1133.070950054037	328.387541053663	634.303798211267	1199.742735265853	239.290337320288	584.586339831677	1101.673117134062	55.017392856884	556.928652644008	1265.132790737820	126.295800274292	600.495125444782	1184.526574953970	51.427993038139	631.272396381727	1388.465465448049	86.088768642076	629.297759384543	719.628241549863	38.725962100804	378.288461262675	787.603730717638	35.196359352739	292.834024612646	873.294327390222	95.558452693255	315.292453038754	999.033470383290	40.866436133411	276.497696887472	1067.395803052574	1115.887564890883	94.098238324219	1313.757047323207	1122.793586360144	146.720013624233	918.613456720972	1112.903557865770	727.656682496416	886.767146465704	853.622912131216	746.169796353436	
72	20.011571428571	820.643374483172	1003.345794823981	455.540849067977	1021.290401645366	1423.499012017028	269.704200385743	1125.216020634425	1342.310231449576	425.393703480745	1055.191322553153	1423.668367087206	601.399167869431	1032.705773326301	1480.799681199712	421.646167749153	1048.799878242462	929.210691684685	566.560478696809	1024.847018668638	955.435488663887	291.260911108424	1121.275882678895	764.272741369252	540.037181584701	1082.055485518430	643.210107542911	619.164814915391	1170.616329474193	608.270727065743	537.673916191159	1206.531322023071	524.128827158751	556.966360058822	1028.911876030484	725.578739180616	316.383580400509	908.805220916301	634.779242603939	255.486644491340	969.473995085470	538.494123340249	314.771147385873	953.364388348501	472.235289988262	323.840103506157	919.458758179105	406.101314073656	314.442757354597	813.278841677244	305.697411411216	266.258292363457	851.533510216477	187.295967498123	332.586292290207	1187.904895949831	433.895496265940	569.654841300191	1131.792321459456	321.506699566301	633.861989485778	1200.499277661206	233.963083970176	583.865928652236	1105.764356888948	48.745089771658	555.922273324579	1268.444856068043	121.822488526195	598.801540976362	1188.802723668105	46.699835774474	630.185530188563	1392.460356476018	83.477732879985	627.526136302899	711.401551217084	38.562982111905	378.271109339707	779.431313674615	35.029382020452	292.854196896211	865.149201123848	95.384900371269	315.358633108430	990.918989951327	40.718618619193	276.476319277019	1068.718640062712	1115.131306369795	95.365664665236	1313.894730287430	1129.651570320236	150.042510131555	915.055516596288	1114.106248957949	729.851876003479	878.756736624876	855.323064755796	745.355218714833	
73	20.023142857143	823.519535356464	1000.764652486320	458.563090994604	1021.224929042457	1421.618390538671	272.255459019887	1126.502096944456	1340.777586858179	427.317911540421	1056.935020320988	1421.699846263703	603.753945730299	1033.570662154122	1478.885189447383	424.167895552457	1052.298678838246	926.658191645991	568.073191746206	1026.971376859247	955.229252217111	292.805755081494	1122.572041903937	758.596031725765	541.764388080822	1080.267565223615	638.316222291143	620.274399854723	1168.094011312775	602.476391980662	538.408129451753	1202.133468780810	518.859166552742	556.860168754413	1029.446932212400	723.190915977834	317.704683677928	908.019472885884	633.607713718582	257.085036324387	967.862666707248	536.555764740291	315.864968162856	951.069303108812	469.989395944739	324.824970787585	916.061271139302	404.425548359480	315.367103884064	808.176575425923	305.708812469083	267.066460275958	844.726992944034	186.491085945478	332.857443148035	1184.880928964926	428.670579742222	569.726107779854	1129.810403010929	315.477403788165	633.190550717927	1199.607173766544	228.975185230986	582.885839649932	1106.268591783453	44.292146338541	554.706454825340	1268.900046725156	117.166020620597	596.727576848471	1189.393944619578	42.938002150437	628.879527165510	1393.028393938979	79.259281547770	625.259863034517	703.182740883874	38.589818294265	378.213604704337	771.295434935523	34.929278236772	292.871001851116	857.108593108805	95.215374723775	315.404848057338	982.858766106841	40.534912043916	276.435314961624	1069.442879092841	1113.886950741403	96.943656364391	1313.390801287434	1135.203443267922	153.329086876158	912.158852288469	1115.009559029461	732.021109900655	871.882419234384	856.646457945342	744.761386138034	
74	20.034714285714	826.326339072634	998.329198563375	461.692659227984	1021.267453722234	1419.745922123243	274.862949420893	1127.887077467860	1339.338400495736	429.373072912199	1058.713758393341	1419.856198811556	606.223784466153	1034.568682466987	1477.100604060319	426.796666627683	1055.686692203370	924.338329654884	569.821623761883	1029.209172496255	955.212298273393	294.461374560480	1124.360279942528	753.814125810837	543.621374473233	1079.247763063673	634.221726444869	621.295218766104	1166.643719397517	597.795795485982	539.330845394627	1198.750357912961	514.263229165476	556.881236671482	1030.448703101558	720.941536996676	319.267440103244	907.888776207109	632.363387833050	258.934022956929	967.198416791133	534.593908373466	317.098266468328	949.840989910170	467.548423876297	325.901161994543	913.463165037676	402.636372214392	316.415875790091	803.681936151711	305.896350277152	267.998354304390	838.259113667310	185.773746173784	333.159640003819	1182.323095818097	423.981044874427	569.733890513516	1127.466559960506	310.471030922192	632.481891001007	1197.409482042435	224.479630864509	581.772206437876	1103.655335681072	41.468467613922	553.452660169432	1266.899860827628	112.552265710551	594.487410496308	1186.814400359224	40.115554223132	627.544008273584	1390.707149288953	73.898596335362	622.750018227872	695.003577067922	38.970684044878	378.109567340279	763.215991545111	34.985103443850	292.881240934398	849.234980750857	95.081321802099	315.405647170895	974.859031684265	40.311078151517	276.369053757093	1069.522719017323	1112.175033045952	98.871459246555	1312.312791299061	1139.376224026325	156.552877254991	910.052658076448	1115.568927398684	734.105406040021	866.224121163713	857.548706027839	744.455764700089	
